<svg width="18" height="26" viewBox="0 0 18 26" fill="none" xmlns="http://www.w3.org/2000/svg">
<path d="M17.3569 9.28585C17.3569 13.9101 8.99972 25.0716 8.99972 25.0716C8.99972 25.0716 0.642578 13.9101 0.642578 9.28585C0.642578 7.0694 1.52306 4.94373 3.09033 3.37646C4.6576 1.80919 6.78327 0.928711 8.99972 0.928711C11.2162 0.928711 13.3418 1.80919 14.9091 3.37646C16.4764 4.94373 17.3569 7.0694 17.3569 9.28585Z" fill="#DDA853"/>
<path d="M8.99958 12.0714C10.5381 12.0714 11.7853 10.8242 11.7853 9.28571C11.7853 7.74721 10.5381 6.5 8.99958 6.5C7.46107 6.5 6.21387 7.74721 6.21387 9.28571C6.21387 10.8242 7.46107 12.0714 8.99958 12.0714Z" fill="white"/>
</svg>
