<svg width="58" height="58" viewBox="0 0 58 58" fill="none" xmlns="http://www.w3.org/2000/svg">
<path d="M29 41.5117V45.696" stroke="#FB8101" stroke-width="3" stroke-linecap="round" stroke-linejoin="round"/>
<path d="M29 20.7559V24.6501" stroke="#FB8101" stroke-width="3" stroke-linecap="round" stroke-linejoin="round"/>
<path d="M29 55.8873C43.5 55.8873 53.8571 50.7501 53.8571 39.3158C53.8571 26.8873 47.6428 18.6016 35.2143 12.3873L40.1028 6.09012C40.3512 5.67696 40.4859 5.20548 40.4933 4.72347C40.5007 4.24147 40.3805 3.76607 40.145 3.34547C39.9095 2.92487 39.5669 2.57401 39.1521 2.32846C38.7372 2.08292 38.2649 1.95141 37.7828 1.94727H20.2171C19.7351 1.95141 19.2627 2.08292 18.8478 2.32846C18.433 2.57401 18.0905 2.92487 17.8549 3.34547C17.6194 3.76607 17.4992 4.24147 17.5066 4.72347C17.514 5.20548 17.6488 5.67696 17.8971 6.09012L22.7857 12.4287C10.3571 18.6844 4.14282 26.9701 4.14282 39.3987C4.14282 50.7501 14.5 55.8873 29 55.8873Z" stroke="#FB8101" stroke-width="3" stroke-linecap="round" stroke-linejoin="round"/>
<path d="M24.8571 39.6059C25.3626 40.2059 25.9988 40.6822 26.7169 40.9982C27.4351 41.3141 28.216 41.4614 28.9999 41.4287C30.1981 41.5104 31.3812 41.1244 32.3006 40.3518C33.22 39.5792 33.8041 38.4802 33.9299 37.2859C33.8041 36.0916 33.22 34.9926 32.3006 34.22C31.3812 33.4474 30.1981 33.0613 28.9999 33.143C27.8018 33.2247 26.6187 32.8387 25.6993 32.066C24.7799 31.2934 24.1958 30.1945 24.0699 29.0002C24.1857 27.8017 24.7669 26.6964 25.6888 25.9218C26.6106 25.1471 27.7994 24.7649 28.9999 24.8573C29.77 24.8102 30.541 24.9344 31.2574 25.2209C31.9737 25.5075 32.6176 25.9492 33.1428 26.5145" stroke="#FB8101" stroke-width="3" stroke-linecap="round" stroke-linejoin="round"/>
</svg>
