<svg width="30" height="30" viewBox="0 0 30 30" fill="none" xmlns="http://www.w3.org/2000/svg">
<path d="M19.0435 28.825C20.4617 29.7414 22.1516 30.1407 23.8292 29.9559C25.5067 29.7711 27.0696 29.0134 28.255 27.8102L29.2913 26.7954C29.7456 26.33 30 25.7049 30 25.054C30 24.4032 29.7456 23.7781 29.2913 23.3127L24.8928 18.9536C24.432 18.5 23.8117 18.2458 23.1656 18.2458C22.5195 18.2458 21.8993 18.5 21.4385 18.9536C20.9738 19.4086 20.3497 19.6634 19.6998 19.6634C19.0499 19.6634 18.4258 19.4086 17.9611 18.9536L11.0525 12.0343C10.822 11.8068 10.639 11.5358 10.5141 11.2368C10.3892 10.9379 10.3249 10.617 10.3249 10.293C10.3249 9.9689 10.3892 9.64806 10.5141 9.34912C10.639 9.05017 10.822 8.77909 11.0525 8.55162C11.5054 8.0901 11.7591 7.4689 11.7591 6.82181C11.7591 6.17472 11.5054 5.55351 11.0525 5.09199L6.67703 0.709793C6.21233 0.254772 5.58825 0 4.93836 0C4.28846 0 3.66439 0.254772 3.19968 0.709793L2.18642 1.74768C0.985111 2.93489 0.22859 4.50017 0.0440572 6.18031C-0.140475 7.86046 0.258236 9.55301 1.17315 10.9734C5.94021 18.0096 12.0057 24.0688 19.0435 28.825Z" fill="#DDA853"/>
</svg>
