<svg width="32" height="32" viewBox="0 0 32 32" fill="none" xmlns="http://www.w3.org/2000/svg">
<path d="M7.93621 5.33008C5.2242 5.33008 3.10156 6.0154 2.72689 8.62207C2.60689 9.45673 2.87087 10.2781 3.47754 10.8714C3.77887 11.1661 4.09755 11.5167 4.51888 11.8714C5.57622 12.7634 6.92422 13.7661 8.18556 14.6634C11.6562 17.1301 14.3962 18.6634 16.0189 18.6634C17.6416 18.6634 20.3816 17.1301 23.8522 14.6634C25.1149 13.7661 26.4629 12.7621 27.5189 11.8714C27.9403 11.5167 28.2589 11.1674 28.5603 10.8714C29.1669 10.2781 29.4309 9.45673 29.3109 8.62207C28.9362 6.0154 26.8136 5.33008 24.1016 5.33008H7.93621ZM2.68555 13.5381V21.3301C2.68555 24.2754 5.07355 26.6634 8.01889 26.6634H24.0189C26.9643 26.6634 29.3523 24.2754 29.3523 21.3301V13.5381C28.2589 14.5767 27.0376 15.6487 25.3109 16.8714C21.5296 19.5487 18.1336 21.3301 16.0189 21.3301C13.9042 21.3301 10.5082 19.5487 6.72689 16.8714C4.99889 15.6487 3.77888 14.5767 2.68555 13.5381Z" fill="#DDA853"/>
</svg>
