<svg width="76" height="78" viewBox="0 0 76 78" fill="none" xmlns="http://www.w3.org/2000/svg">
<mask id="path-1-inside-1_1863_1475" fill="white">
<path fill-rule="evenodd" clip-rule="evenodd" d="M37.9997 71.5C55.4887 71.5 69.6663 56.9493 69.6663 39C69.6663 21.0507 55.4887 6.5 37.9997 6.5C20.5107 6.5 6.33301 21.0507 6.33301 39C6.33301 56.9493 20.5107 71.5 37.9997 71.5ZM45.6773 23.1273C43.6738 23.0335 43.0729 23.0136 37.9997 23.0136C32.9265 23.0136 32.3255 23.0335 30.3221 23.1273C28.4696 23.214 27.4635 23.5316 26.794 23.7987C25.9072 24.1524 25.2742 24.575 24.6094 25.2574C23.9445 25.9397 23.5328 26.5893 23.1881 27.4995C22.9279 28.1866 22.6184 29.2191 22.5339 31.1204C22.4425 33.1765 22.4231 33.7933 22.4231 39C22.4231 44.2067 22.4425 44.8235 22.5339 46.8797C22.6184 48.7809 22.9279 49.8134 23.1881 50.5005C23.5328 51.4107 23.9446 52.0603 24.6094 52.7426C25.2742 53.425 25.9072 53.8476 26.794 54.2013C27.4635 54.4684 28.4696 54.786 30.3221 54.8727C32.3253 54.9666 32.9261 54.9864 37.9997 54.9864C43.0733 54.9864 43.6741 54.9666 45.6773 54.8727C47.5298 54.786 48.5358 54.4684 49.2053 54.2013C50.0922 53.8476 50.7251 53.425 51.39 52.7426C52.0549 52.0603 52.4666 51.4107 52.8113 50.5005C53.0715 49.8134 53.381 48.7809 53.4655 46.8797C53.5569 44.8235 53.5763 44.2067 53.5763 39C53.5763 33.7933 53.5569 33.1765 53.4655 31.1204C53.381 29.2191 53.0715 28.1866 52.8113 27.4995C52.4666 26.5893 52.0549 25.9397 51.39 25.2573C50.7251 24.575 50.0922 24.1524 49.2053 23.7987C48.5358 23.5316 47.5298 23.214 45.6773 23.1273ZM30.166 19.6174C32.1926 19.5225 32.8396 19.5001 37.9997 19.5001C43.1598 19.5001 43.8068 19.5225 45.8334 19.6174C47.8557 19.7121 49.2369 20.0418 50.4454 20.5238C51.6948 21.0221 52.7544 21.6889 53.8107 22.7729C54.867 23.8571 55.5167 24.9445 56.0022 26.2268C56.4719 27.4671 56.7931 28.8847 56.8853 30.9602C56.9778 33.0401 56.9997 33.7041 56.9997 39C56.9997 44.2959 56.9778 44.9599 56.8853 47.0398C56.7931 49.1153 56.4719 50.5329 56.0022 51.7732C55.5167 53.0555 54.867 54.143 53.8107 55.2271C52.7544 56.3112 51.6948 56.9779 50.4454 57.4762C49.2369 57.9583 47.8557 58.2879 45.8334 58.3826C43.8068 58.4775 43.1598 58.4999 37.9997 58.4999C32.8396 58.4999 32.1926 58.4775 30.166 58.3826C28.1437 58.2879 26.7625 57.9583 25.554 57.4762C24.3045 56.9779 23.245 56.3112 22.1886 55.2271C21.1324 54.143 20.4827 53.0555 19.9972 51.7732C19.5275 50.5329 19.2063 49.1153 19.114 47.0398C19.0216 44.9599 18.9997 44.2959 18.9997 39C18.9997 33.7041 19.0216 33.0401 19.114 30.9602C19.2063 28.8847 19.5275 27.4671 19.9972 26.2268C20.4827 24.9445 21.1324 23.8571 22.1886 22.7729C23.245 21.6889 24.3045 21.0221 25.554 20.5238C26.7625 20.0418 28.1437 19.7121 30.166 19.6174ZM38.0085 28.9956C32.62 28.9956 28.2517 33.4788 28.2517 39.009C28.2517 44.5394 32.62 49.0226 38.0085 49.0226C43.397 49.0226 47.7652 44.5394 47.7652 39.009C47.7652 33.4788 43.397 28.9956 38.0085 28.9956ZM38.0085 45.5091C34.5107 45.5091 31.6752 42.5989 31.6752 39.009C31.6752 35.4192 34.5107 32.5091 38.0085 32.5091C41.5063 32.5091 44.3418 35.4192 44.3418 39.009C44.3418 42.5989 41.5063 45.5091 38.0085 45.5091ZM48.1501 30.9338C49.4093 30.9338 50.4301 29.8861 50.4301 28.5938C50.4301 27.3015 49.4093 26.2538 48.1501 26.2538C46.8909 26.2538 45.8701 27.3015 45.8701 28.5938C45.8701 29.8861 46.8909 30.9338 48.1501 30.9338Z"/>
</mask>
<path fill-rule="evenodd" clip-rule="evenodd" d="M37.9997 71.5C55.4887 71.5 69.6663 56.9493 69.6663 39C69.6663 21.0507 55.4887 6.5 37.9997 6.5C20.5107 6.5 6.33301 21.0507 6.33301 39C6.33301 56.9493 20.5107 71.5 37.9997 71.5ZM45.6773 23.1273C43.6738 23.0335 43.0729 23.0136 37.9997 23.0136C32.9265 23.0136 32.3255 23.0335 30.3221 23.1273C28.4696 23.214 27.4635 23.5316 26.794 23.7987C25.9072 24.1524 25.2742 24.575 24.6094 25.2574C23.9445 25.9397 23.5328 26.5893 23.1881 27.4995C22.9279 28.1866 22.6184 29.2191 22.5339 31.1204C22.4425 33.1765 22.4231 33.7933 22.4231 39C22.4231 44.2067 22.4425 44.8235 22.5339 46.8797C22.6184 48.7809 22.9279 49.8134 23.1881 50.5005C23.5328 51.4107 23.9446 52.0603 24.6094 52.7426C25.2742 53.425 25.9072 53.8476 26.794 54.2013C27.4635 54.4684 28.4696 54.786 30.3221 54.8727C32.3253 54.9666 32.9261 54.9864 37.9997 54.9864C43.0733 54.9864 43.6741 54.9666 45.6773 54.8727C47.5298 54.786 48.5358 54.4684 49.2053 54.2013C50.0922 53.8476 50.7251 53.425 51.39 52.7426C52.0549 52.0603 52.4666 51.4107 52.8113 50.5005C53.0715 49.8134 53.381 48.7809 53.4655 46.8797C53.5569 44.8235 53.5763 44.2067 53.5763 39C53.5763 33.7933 53.5569 33.1765 53.4655 31.1204C53.381 29.2191 53.0715 28.1866 52.8113 27.4995C52.4666 26.5893 52.0549 25.9397 51.39 25.2573C50.7251 24.575 50.0922 24.1524 49.2053 23.7987C48.5358 23.5316 47.5298 23.214 45.6773 23.1273ZM30.166 19.6174C32.1926 19.5225 32.8396 19.5001 37.9997 19.5001C43.1598 19.5001 43.8068 19.5225 45.8334 19.6174C47.8557 19.7121 49.2369 20.0418 50.4454 20.5238C51.6948 21.0221 52.7544 21.6889 53.8107 22.7729C54.867 23.8571 55.5167 24.9445 56.0022 26.2268C56.4719 27.4671 56.7931 28.8847 56.8853 30.9602C56.9778 33.0401 56.9997 33.7041 56.9997 39C56.9997 44.2959 56.9778 44.9599 56.8853 47.0398C56.7931 49.1153 56.4719 50.5329 56.0022 51.7732C55.5167 53.0555 54.867 54.143 53.8107 55.2271C52.7544 56.3112 51.6948 56.9779 50.4454 57.4762C49.2369 57.9583 47.8557 58.2879 45.8334 58.3826C43.8068 58.4775 43.1598 58.4999 37.9997 58.4999C32.8396 58.4999 32.1926 58.4775 30.166 58.3826C28.1437 58.2879 26.7625 57.9583 25.554 57.4762C24.3045 56.9779 23.245 56.3112 22.1886 55.2271C21.1324 54.143 20.4827 53.0555 19.9972 51.7732C19.5275 50.5329 19.2063 49.1153 19.114 47.0398C19.0216 44.9599 18.9997 44.2959 18.9997 39C18.9997 33.7041 19.0216 33.0401 19.114 30.9602C19.2063 28.8847 19.5275 27.4671 19.9972 26.2268C20.4827 24.9445 21.1324 23.8571 22.1886 22.7729C23.245 21.6889 24.3045 21.0221 25.554 20.5238C26.7625 20.0418 28.1437 19.7121 30.166 19.6174ZM38.0085 28.9956C32.62 28.9956 28.2517 33.4788 28.2517 39.009C28.2517 44.5394 32.62 49.0226 38.0085 49.0226C43.397 49.0226 47.7652 44.5394 47.7652 39.009C47.7652 33.4788 43.397 28.9956 38.0085 28.9956ZM38.0085 45.5091C34.5107 45.5091 31.6752 42.5989 31.6752 39.009C31.6752 35.4192 34.5107 32.5091 38.0085 32.5091C41.5063 32.5091 44.3418 35.4192 44.3418 39.009C44.3418 42.5989 41.5063 45.5091 38.0085 45.5091ZM48.1501 30.9338C49.4093 30.9338 50.4301 29.8861 50.4301 28.5938C50.4301 27.3015 49.4093 26.2538 48.1501 26.2538C46.8909 26.2538 45.8701 27.3015 45.8701 28.5938C45.8701 29.8861 46.8909 30.9338 48.1501 30.9338Z" fill="black"/>
<path d="M45.6773 23.1273L45.6305 24.1262L45.6306 24.1262L45.6773 23.1273ZM30.3221 23.1273L30.3688 24.1262L30.3688 24.1262L30.3221 23.1273ZM26.794 23.7987L27.1645 24.7275L27.1645 24.7275L26.794 23.7987ZM24.6094 25.2574L25.3256 25.9553L25.3257 25.9552L24.6094 25.2574ZM23.1881 27.4995L24.1233 27.8536L24.1233 27.8536L23.1881 27.4995ZM22.5339 31.1204L23.5329 31.1648V31.1647L22.5339 31.1204ZM22.5339 46.8797L23.5329 46.8353V46.8352L22.5339 46.8797ZM23.1881 50.5005L24.1233 50.1464L24.1233 50.1464L23.1881 50.5005ZM24.6094 52.7426L25.3257 52.0448L25.3256 52.0448L24.6094 52.7426ZM26.794 54.2013L27.1645 53.2725L27.1645 53.2725L26.794 54.2013ZM30.3221 54.8727L30.3688 53.8738H30.3688L30.3221 54.8727ZM45.6773 54.8727L45.6306 53.8738H45.6305L45.6773 54.8727ZM49.2053 54.2013L48.8349 53.2725L48.8349 53.2725L49.2053 54.2013ZM51.39 52.7426L50.6738 52.0448L51.39 52.7426ZM52.8113 50.5005L51.8761 50.1464L51.8761 50.1464L52.8113 50.5005ZM53.4655 46.8797L52.4665 46.8352L52.4665 46.8353L53.4655 46.8797ZM53.4655 31.1204L52.4665 31.1647L52.4665 31.1648L53.4655 31.1204ZM52.8113 27.4995L51.8761 27.8536L51.8761 27.8536L52.8113 27.4995ZM51.39 25.2573L52.1062 24.5594V24.5594L51.39 25.2573ZM49.2053 23.7987L48.8349 24.7275H48.8349L49.2053 23.7987ZM30.166 19.6174L30.2128 20.6163L30.2128 20.6163L30.166 19.6174ZM45.8334 19.6174L45.7866 20.6163L45.7866 20.6163L45.8334 19.6174ZM50.4454 20.5238L50.8159 19.5949L50.8159 19.5949L50.4454 20.5238ZM53.8107 22.7729L54.527 22.0751L54.527 22.075L53.8107 22.7729ZM56.0022 26.2268L56.9374 25.8727L56.9374 25.8727L56.0022 26.2268ZM56.8853 30.9602L55.8863 31.0046L55.8863 31.0046L56.8853 30.9602ZM56.8853 47.0398L55.8863 46.9954L55.8863 46.9954L56.8853 47.0398ZM56.0022 51.7732L56.9374 52.1273L56.9374 52.1273L56.0022 51.7732ZM53.8107 55.2271L54.527 55.925L54.527 55.9249L53.8107 55.2271ZM50.4454 57.4762L50.075 56.5473L50.0749 56.5474L50.4454 57.4762ZM45.8334 58.3826L45.7866 57.3837H45.7866L45.8334 58.3826ZM30.166 58.3826L30.2128 57.3837H30.2128L30.166 58.3826ZM25.554 57.4762L25.9245 56.5474L25.9244 56.5473L25.554 57.4762ZM22.1886 55.2271L21.4724 55.9249L21.4724 55.925L22.1886 55.2271ZM19.9972 51.7732L20.9324 51.4191L20.9324 51.419L19.9972 51.7732ZM19.114 47.0398L20.113 46.9954L20.113 46.9954L19.114 47.0398ZM19.114 30.9602L20.113 31.0046L20.113 31.0046L19.114 30.9602ZM19.9972 26.2268L20.9324 26.581L20.9324 26.5809L19.9972 26.2268ZM22.1886 22.7729L21.4724 22.075L21.4724 22.0751L22.1886 22.7729ZM25.554 20.5238L25.1835 19.5949L25.1835 19.5949L25.554 20.5238ZM68.6663 39C68.6663 56.4216 54.9121 70.5 37.9997 70.5V72.5C56.0653 72.5 70.6663 57.4769 70.6663 39H68.6663ZM37.9997 7.5C54.9121 7.5 68.6663 21.5784 68.6663 39H70.6663C70.6663 20.5231 56.0653 5.5 37.9997 5.5V7.5ZM7.33301 39C7.33301 21.5784 21.0873 7.5 37.9997 7.5V5.5C19.934 5.5 5.33301 20.5231 5.33301 39H7.33301ZM37.9997 70.5C21.0873 70.5 7.33301 56.4216 7.33301 39H5.33301C5.33301 57.4769 19.934 72.5 37.9997 72.5V70.5ZM37.9997 24.0136C43.0685 24.0136 43.6508 24.0335 45.6305 24.1262L45.7241 22.1284C43.6969 22.0334 43.0773 22.0136 37.9997 22.0136V24.0136ZM30.3688 24.1262C32.3486 24.0335 32.9309 24.0136 37.9997 24.0136V22.0136C32.9221 22.0136 32.3025 22.0334 30.2753 22.1284L30.3688 24.1262ZM27.1645 24.7275C27.7328 24.5008 28.6296 24.2076 30.3688 24.1262L30.2753 22.1284C28.3096 22.2204 27.1943 22.5624 26.4235 22.8699L27.1645 24.7275ZM25.3257 25.9552C25.8924 25.3735 26.4075 25.0295 27.1645 24.7275L26.4235 22.8698C25.4068 23.2754 24.656 23.7765 23.8931 24.5596L25.3257 25.9552ZM24.1233 27.8536C24.4204 27.0689 24.7586 26.5371 25.3256 25.9553L23.8932 24.5595C23.1303 25.3423 22.6451 26.1096 22.2529 27.1454L24.1233 27.8536ZM23.5329 31.1647C23.6126 29.3709 23.9002 28.4428 24.1233 27.8536L22.2529 27.1454C21.9556 27.9304 21.6241 29.0674 21.5349 31.076L23.5329 31.1647ZM23.4231 39C23.4231 33.7975 23.4425 33.1984 23.5329 31.1648L21.5349 31.0759C21.4425 33.1547 21.4231 33.7891 21.4231 39H23.4231ZM23.5329 46.8352C23.4425 44.8016 23.4231 44.2025 23.4231 39H21.4231C21.4231 44.2109 21.4425 44.8453 21.5349 46.9241L23.5329 46.8352ZM24.1233 50.1464C23.9002 49.5572 23.6126 48.6291 23.5329 46.8353L21.5349 46.924C21.6241 48.9326 21.9556 50.0696 22.2529 50.8546L24.1233 50.1464ZM25.3256 52.0448C24.7587 51.4629 24.4204 50.931 24.1233 50.1464L22.2529 50.8546C22.6451 51.8904 23.1304 52.6577 23.8932 53.4405L25.3256 52.0448ZM27.1645 53.2725C26.4075 52.9705 25.8924 52.6266 25.3257 52.0448L23.8931 53.4405C24.656 54.2235 25.4069 54.7246 26.4235 55.1302L27.1645 53.2725ZM30.3688 53.8738C28.6296 53.7924 27.7328 53.4992 27.1645 53.2725L26.4235 55.1302C27.1943 55.4376 28.3096 55.7796 30.2753 55.8716L30.3688 53.8738ZM37.9997 53.9864C32.9305 53.9864 32.3483 53.9665 30.3688 53.8738L30.2753 55.8716C32.3023 55.9666 32.9217 55.9864 37.9997 55.9864V53.9864ZM45.6305 53.8738C43.6511 53.9665 43.0689 53.9864 37.9997 53.9864V55.9864C43.0777 55.9864 43.6972 55.9666 45.7241 55.8716L45.6305 53.8738ZM48.8349 53.2725C48.2666 53.4992 47.3698 53.7924 45.6306 53.8738L45.7241 55.8716C47.6898 55.7796 48.8051 55.4376 49.5758 55.1302L48.8349 53.2725ZM50.6738 52.0448C50.1069 52.6265 49.5919 52.9705 48.8349 53.2725L49.5758 55.1302C50.5925 54.7246 51.3433 54.2235 52.1063 53.4405L50.6738 52.0448ZM51.8761 50.1464C51.5789 50.9311 51.2407 51.463 50.6738 52.0448L52.1063 53.4405C52.869 52.6576 53.3543 51.8904 53.7465 50.8546L51.8761 50.1464ZM52.4665 46.8353C52.3868 48.6291 52.0992 49.5572 51.8761 50.1464L53.7465 50.8546C54.0437 50.0696 54.3752 48.9326 54.4645 46.924L52.4665 46.8353ZM52.5763 39C52.5763 44.2025 52.5569 44.8016 52.4665 46.8352L54.4645 46.9241C54.5569 44.8453 54.5763 44.2109 54.5763 39H52.5763ZM52.4665 31.1648C52.5569 33.1984 52.5763 33.7975 52.5763 39H54.5763C54.5763 33.7891 54.5569 33.1547 54.4645 31.076L52.4665 31.1648ZM51.8761 27.8536C52.0992 28.4428 52.3868 29.3709 52.4665 31.1647L54.4645 31.076C54.3752 29.0674 54.0437 27.9304 53.7465 27.1454L51.8761 27.8536ZM50.6737 25.9552C51.2407 26.5371 51.5789 27.069 51.8761 27.8536L53.7465 27.1454C53.3543 26.1096 52.869 25.3424 52.1062 24.5594L50.6737 25.9552ZM48.8349 24.7275C49.5919 25.0295 50.107 25.3735 50.6737 25.9552L52.1062 24.5594C51.3433 23.7765 50.5925 23.2754 49.5758 22.8699L48.8349 24.7275ZM45.6306 24.1262C47.3698 24.2076 48.2666 24.5008 48.8349 24.7275L49.5758 22.8699C48.8051 22.5624 47.6898 22.2204 45.7241 22.1284L45.6306 24.1262ZM37.9997 18.5001C32.8346 18.5001 32.1692 18.5225 30.1192 18.6185L30.2128 20.6163C32.2159 20.5225 32.8446 20.5001 37.9997 20.5001V18.5001ZM45.8801 18.6185C43.8302 18.5225 43.1648 18.5001 37.9997 18.5001V20.5001C43.1548 20.5001 43.7835 20.5225 45.7866 20.6163L45.8801 18.6185ZM50.8159 19.5949C49.4922 19.067 47.9999 18.7177 45.8801 18.6185L45.7866 20.6163C47.7114 20.7064 48.9816 21.0165 50.075 21.4526L50.8159 19.5949ZM54.527 22.075C53.3669 20.8846 52.1874 20.1419 50.8159 19.5949L50.0749 21.4526C51.2023 21.9022 52.1419 22.4931 53.0945 23.4708L54.527 22.075ZM56.9374 25.8727C56.4073 24.4726 55.6866 23.2653 54.527 22.0751L53.0945 23.4708C54.0474 24.4488 54.6261 25.4165 55.067 26.5809L56.9374 25.8727ZM57.8844 30.9158C57.788 28.748 57.4492 27.2243 56.9374 25.8727L55.067 26.5809C55.4946 27.71 55.7982 29.0214 55.8863 31.0046L57.8844 30.9158ZM57.9997 39C57.9997 33.6994 57.9778 33.0179 57.8844 30.9158L55.8863 31.0046C55.9778 33.0622 55.9997 33.7089 55.9997 39H57.9997ZM57.8844 47.0842C57.9778 44.9821 57.9997 44.3006 57.9997 39H55.9997C55.9997 44.2911 55.9778 44.9378 55.8863 46.9954L57.8844 47.0842ZM56.9374 52.1273C57.4492 50.7757 57.788 49.252 57.8844 47.0842L55.8863 46.9954C55.7982 48.9787 55.4946 50.29 55.067 51.4191L56.9374 52.1273ZM54.527 55.9249C55.6866 54.7347 56.4073 53.5274 56.9374 52.1273L55.067 51.4191C54.6261 52.5835 54.0474 53.5512 53.0945 54.5293L54.527 55.9249ZM50.8158 58.405C52.1874 57.8581 53.3669 57.1154 54.527 55.925L53.0945 54.5292C52.1419 55.5069 51.2023 56.0978 50.075 56.5473L50.8158 58.405ZM45.8801 59.3815C47.9999 59.2823 49.4922 58.933 50.8159 58.405L50.0749 56.5474C48.9815 56.9835 47.7114 57.2936 45.7866 57.3837L45.8801 59.3815ZM37.9997 59.4999C43.1648 59.4999 43.8302 59.4775 45.8801 59.3815L45.7866 57.3837C43.7835 57.4775 43.1548 57.4999 37.9997 57.4999V59.4999ZM30.1192 59.3815C32.1692 59.4775 32.8346 59.4999 37.9997 59.4999V57.4999C32.8446 57.4999 32.2159 57.4775 30.2128 57.3837L30.1192 59.3815ZM25.1835 58.405C26.5072 58.933 27.9994 59.2823 30.1193 59.3815L30.2128 57.3837C28.2879 57.2936 27.0178 56.9835 25.9245 56.5474L25.1835 58.405ZM21.4724 55.925C22.6324 57.1154 23.812 57.8581 25.1835 58.405L25.9244 56.5473C24.7971 56.0978 23.8575 55.5069 22.9048 54.5292L21.4724 55.925ZM19.062 52.1273C19.5921 53.5274 20.3127 54.7347 21.4724 55.9249L22.9049 54.5293C21.952 53.5512 21.3733 52.5836 20.9324 51.4191L19.062 52.1273ZM18.115 47.0842C18.2114 49.252 18.5502 50.7757 19.062 52.1274L20.9324 51.419C20.5048 50.29 20.2012 48.9787 20.113 46.9954L18.115 47.0842ZM17.9997 39C17.9997 44.3006 18.0216 44.9821 18.115 47.0842L20.113 46.9954C20.0216 44.9378 19.9997 44.2911 19.9997 39H17.9997ZM18.115 30.9158C18.0216 33.0179 17.9997 33.6994 17.9997 39H19.9997C19.9997 33.7089 20.0216 33.0622 20.113 31.0046L18.115 30.9158ZM19.062 25.8727C18.5502 27.2243 18.2114 28.748 18.115 30.9158L20.113 31.0046C20.2012 29.0214 20.5048 27.71 20.9324 26.581L19.062 25.8727ZM21.4724 22.0751C20.3127 23.2653 19.5921 24.4726 19.062 25.8727L20.9324 26.5809C21.3733 25.4165 21.952 24.4488 22.9049 23.4708L21.4724 22.0751ZM25.1835 19.5949C23.812 20.1419 22.6324 20.8846 21.4724 22.075L22.9048 23.4708C23.8575 22.4931 24.7971 21.9022 25.9244 21.4526L25.1835 19.5949ZM30.1193 18.6185C27.9994 18.7177 26.5072 19.067 25.1835 19.5949L25.9244 21.4526C27.0178 21.0165 28.2879 20.7064 30.2128 20.6163L30.1193 18.6185ZM29.2517 39.009C29.2517 34.0064 33.1966 29.9956 38.0085 29.9956V27.9956C32.0434 27.9956 27.2517 32.9511 27.2517 39.009H29.2517ZM38.0085 48.0226C33.1966 48.0226 29.2517 44.0118 29.2517 39.009H27.2517C27.2517 45.0671 32.0433 50.0226 38.0085 50.0226V48.0226ZM46.7652 39.009C46.7652 44.0118 42.8204 48.0226 38.0085 48.0226V50.0226C43.9737 50.0226 48.7652 45.0671 48.7652 39.009H46.7652ZM38.0085 29.9956C42.8204 29.9956 46.7652 34.0064 46.7652 39.009H48.7652C48.7652 32.9511 43.9736 27.9956 38.0085 27.9956V29.9956ZM30.6752 39.009C30.6752 43.1266 33.9341 46.5091 38.0085 46.5091V44.5091C35.0873 44.5091 32.6752 42.0713 32.6752 39.009H30.6752ZM38.0085 31.5091C33.9341 31.5091 30.6752 34.8916 30.6752 39.009H32.6752C32.6752 35.9469 35.0873 33.5091 38.0085 33.5091V31.5091ZM45.3418 39.009C45.3418 34.8916 42.0829 31.5091 38.0085 31.5091V33.5091C40.9297 33.5091 43.3418 35.9469 43.3418 39.009H45.3418ZM38.0085 46.5091C42.0829 46.5091 45.3418 43.1266 45.3418 39.009H43.3418C43.3418 42.0713 40.9297 44.5091 38.0085 44.5091V46.5091ZM49.4301 28.5938C49.4301 29.3584 48.8327 29.9338 48.1501 29.9338V31.9338C49.9859 31.9338 51.4301 30.4138 51.4301 28.5938H49.4301ZM48.1501 27.2538C48.8327 27.2538 49.4301 27.8291 49.4301 28.5938H51.4301C51.4301 26.7738 49.9859 25.2538 48.1501 25.2538V27.2538ZM46.8701 28.5938C46.8701 27.8291 47.4675 27.2538 48.1501 27.2538V25.2538C46.3143 25.2538 44.8701 26.7738 44.8701 28.5938H46.8701ZM48.1501 29.9338C47.4675 29.9338 46.8701 29.3585 46.8701 28.5938H44.8701C44.8701 30.4137 46.3143 31.9338 48.1501 31.9338V29.9338Z" fill="#205781" mask="url(#path-1-inside-1_1863_1475)"/>
</svg>
