<svg width="29" height="29" viewBox="0 0 29 29" fill="none" xmlns="http://www.w3.org/2000/svg">
<path d="M18.4153 26.91H18.2582C12.8932 26.91 10.3074 24.7954 9.86028 20.0587C9.81195 19.5633 10.1744 19.1162 10.6819 19.0679C11.1653 19.0196 11.6244 19.3942 11.6728 19.8896C12.0232 23.6837 13.8115 25.0975 18.2703 25.0975H18.4274C23.3453 25.0975 25.0853 23.3575 25.0853 18.4396V10.5612C25.0853 5.64332 23.3453 3.90332 18.4274 3.90332H18.2703C13.7874 3.90332 11.999 5.34124 11.6728 9.2079C11.6124 9.70332 11.1894 10.0779 10.6819 10.0296C10.1744 9.99332 9.81195 9.54624 9.8482 9.05082C10.259 4.24165 12.8569 2.09082 18.2582 2.09082H18.4153C24.3482 2.09082 26.8857 4.62832 26.8857 10.5612V18.4396C26.8857 24.3725 24.3482 26.91 18.4153 26.91Z" fill="#797979"/>
<path d="M18.1249 15.4062H4.37402C3.87861 15.4062 3.46777 14.9954 3.46777 14.5C3.46777 14.0046 3.87861 13.5938 4.37402 13.5938H18.1249C18.6203 13.5938 19.0311 14.0046 19.0311 14.5C19.0311 14.9954 18.6203 15.4062 18.1249 15.4062Z" fill="#797979"/>
<path d="M7.06833 19.4541C6.83875 19.4541 6.60917 19.3696 6.42792 19.1883L2.38 15.1404C2.02958 14.79 2.02958 14.21 2.38 13.8596L6.42792 9.81164C6.77833 9.46122 7.35833 9.46122 7.70875 9.81164C8.05917 10.1621 8.05917 10.7421 7.70875 11.0925L4.30125 14.5L7.70875 17.9075C8.05917 18.2579 8.05917 18.8379 7.70875 19.1883C7.53958 19.3696 7.29792 19.4541 7.06833 19.4541Z" fill="#797979"/>
</svg>
