<svg width="34" height="18" viewBox="0 0 34 18" fill="none" xmlns="http://www.w3.org/2000/svg">
<path d="M10.2 0C4.5662 0 0 4.029 0 9C0 13.971 4.5662 18 10.2 18C13.8091 18 17.9673 16.17 19.8475 11.988L27.2 12L28.9 15H34V6L19.8339 5.98501C18.0081 1.92001 13.8091 0 10.2 0ZM10.2 7.5C10.6352 7.5 11.0891 7.62901 11.4223 7.92151C12.0853 8.50801 12.0853 9.49199 11.4223 10.0785C10.7576 10.6635 9.64241 10.6635 8.97771 10.0785C8.31471 9.49199 8.31471 8.50801 8.97771 7.92151C9.31091 7.62901 9.7648 7.5 10.2 7.5Z" fill="#DDA853"/>
</svg>
