<svg width="26" height="26" viewBox="0 0 26 26" fill="none" xmlns="http://www.w3.org/2000/svg">
<path d="M12.7595 17.643C17.375 17.643 21.1166 13.9014 21.1166 9.28585C21.1166 4.67033 17.375 0.928711 12.7595 0.928711C8.14396 0.928711 4.40234 4.67033 4.40234 9.28585C4.40234 13.9014 8.14396 17.643 12.7595 17.643Z" fill="#DDA853"/>
<path d="M12.7592 13.0003C14.8106 13.0003 16.4735 11.3374 16.4735 9.28606C16.4735 7.23472 14.8106 5.57178 12.7592 5.57178C10.7079 5.57178 9.04492 7.23472 9.04492 9.28606C9.04492 11.3374 10.7079 13.0003 12.7592 13.0003Z" fill="white"/>
<path d="M11.1433 17.4946L9.50901 24.366C9.47666 24.4966 9.41687 24.6188 9.33361 24.7245C9.25036 24.8301 9.14554 24.9168 9.02615 24.9789C8.90014 25.0335 8.76423 25.0618 8.62686 25.0618C8.48949 25.0618 8.35359 25.0335 8.22758 24.9789L2.06186 22.286C1.93253 22.2249 1.81873 22.1352 1.72901 22.0238C1.63928 21.9124 1.57595 21.7821 1.54379 21.6427C1.51162 21.5033 1.51144 21.3584 1.54328 21.219C1.57511 21.0795 1.63812 20.9491 1.72758 20.8374L6.50043 14.8574" fill="#DDA853"/>
<path d="M14.8574 17.4015L16.5288 24.3658C16.5621 24.4986 16.6243 24.6224 16.711 24.7284C16.7976 24.8343 16.9067 24.9198 17.0303 24.9787C17.1528 25.0341 17.2858 25.0627 17.4203 25.0627C17.5548 25.0627 17.6877 25.0341 17.8103 24.9787L23.9389 22.2858C24.0701 22.2254 24.1855 22.1352 24.2758 22.0224C24.366 21.9095 24.4287 21.7772 24.4588 21.6358C24.4941 21.4976 24.4956 21.3529 24.4633 21.2139C24.4309 21.075 24.3657 20.9458 24.2731 20.8373L19.296 14.5044" fill="#DDA853"/>
</svg>
