<svg width="61" height="62" viewBox="0 0 61 62" fill="none" xmlns="http://www.w3.org/2000/svg">
<g clip-path="url(#clip0_1281_423)">
<path d="M13.4902 32.1077V20.0126C13.5256 17.6351 14.0221 15.288 14.9514 13.1059C15.8808 10.9238 17.2246 8.94957 18.9059 7.29624C20.5872 5.64291 22.5729 4.34302 24.7494 3.47106C26.9258 2.5991 29.2501 2.1722 31.5891 2.21482V2.21482C33.9282 2.1722 36.2525 2.5991 38.4289 3.47106C40.6053 4.34302 42.5911 5.64291 44.2724 7.29624C45.9537 8.94957 47.2975 10.9238 48.2268 13.1059C49.1561 15.288 49.6527 17.6351 49.688 20.0126V32.1077" stroke="#FB8101" stroke-width="3" stroke-linecap="round" stroke-linejoin="round"/>
<path d="M6.70319 25.21H11.2279C11.8279 25.21 12.4034 25.4522 12.8276 25.8835C13.2519 26.3147 13.4903 26.8996 13.4903 27.5094V41.3061C13.4903 41.916 13.2519 42.5008 12.8276 42.9321C12.4034 43.3633 11.8279 43.6056 11.2279 43.6056H6.70319C5.50316 43.6056 4.35228 43.121 3.50373 42.2586C2.65518 41.3961 2.17847 40.2264 2.17847 39.0067V29.8089C2.17847 28.5892 2.65518 27.4194 3.50373 26.5569C4.35228 25.6945 5.50316 25.21 6.70319 25.21V25.21Z" stroke="#FB8101" stroke-width="3" stroke-linecap="round" stroke-linejoin="round"/>
<path d="M56.4753 43.6055H51.9505C51.3505 43.6055 50.7751 43.3632 50.3508 42.932C49.9265 42.5007 49.6882 41.9159 49.6882 41.306V27.5093C49.6882 26.8995 49.9265 26.3146 50.3508 25.8834C50.7751 25.4521 51.3505 25.2099 51.9505 25.2099H56.4753C57.6753 25.2099 58.8262 25.6944 59.6747 26.5569C60.5233 27.4193 61 28.5891 61 29.8088V39.0066C61 40.2263 60.5233 41.396 59.6747 42.2585C58.8262 43.1209 57.6753 43.6055 56.4753 43.6055V43.6055Z" stroke="#FB8101" stroke-width="3" stroke-linecap="round" stroke-linejoin="round"/>
<path d="M40.6387 56.2514C43.0387 56.2514 45.3405 55.2823 47.0376 53.5574C48.7347 51.8325 49.6881 49.493 49.6881 47.0536V36.7061" stroke="#FB8101" stroke-width="3" stroke-linecap="round" stroke-linejoin="round"/>
<path d="M40.6387 56.2516C40.6387 57.7762 40.0428 59.2384 38.9821 60.3164C37.9214 61.3945 36.4828 62.0002 34.9828 62.0002H28.1957C26.6957 62.0002 25.2571 61.3945 24.1964 60.3164C23.1357 59.2384 22.5398 57.7762 22.5398 56.2516C22.5398 54.7269 23.1357 53.2647 24.1964 52.1867C25.2571 51.1086 26.6957 50.5029 28.1957 50.5029H34.9828C36.4828 50.5029 37.9214 51.1086 38.9821 52.1867C40.0428 53.2647 40.6387 54.7269 40.6387 56.2516Z" stroke="#FB8101" stroke-width="3" stroke-linecap="round" stroke-linejoin="round"/>
</g>
<defs>
<clipPath id="clip0_1281_423">
<rect width="61" height="62" fill="white"/>
</clipPath>
</defs>
</svg>
