<svg width="64" height="64" viewBox="0 0 64 64" fill="none" xmlns="http://www.w3.org/2000/svg">
<rect width="64" height="64" rx="32" fill="black"/>
<path fill-rule="evenodd" clip-rule="evenodd" d="M14.4857 31.6624C23.8144 27.598 30.0349 24.9186 33.1474 23.624C42.0341 19.9277 43.8807 19.2856 45.0843 19.2644C45.349 19.2597 45.9409 19.3253 46.3243 19.6364C46.648 19.8991 46.7371 20.254 46.7797 20.503C46.8224 20.7521 46.8754 21.3194 46.8332 21.7628C46.3517 26.8227 44.2679 39.1019 43.2078 44.7691C42.7592 47.1671 41.876 47.9712 41.0209 48.0499C39.1626 48.2209 37.7515 46.8218 35.9516 45.6419C33.1352 43.7957 31.5441 42.6465 28.8103 40.8449C25.6509 38.7629 27.699 37.6186 29.4995 35.7485C29.9707 35.2591 38.1585 27.8118 38.3169 27.1362C38.3367 27.0517 38.3551 26.7367 38.168 26.5704C37.9809 26.4041 37.7048 26.461 37.5055 26.5062C37.223 26.5703 32.7237 29.5442 24.0077 35.4277C22.7306 36.3047 21.5738 36.732 20.5374 36.7096C19.3949 36.6849 17.197 36.0636 15.5632 35.5325C13.5591 34.881 11.9664 34.5366 12.1051 33.4303C12.1773 32.8541 12.9709 32.2648 14.4857 31.6624Z" fill="#205781"/>
</svg>
