<svg width="53" height="53" viewBox="0 0 53 53" fill="none" xmlns="http://www.w3.org/2000/svg">
<g clip-path="url(#clip0_1278_409)">
<path d="M1.89282 26.4997C1.89282 31.3666 3.33601 36.1241 6.03987 40.1707C8.74374 44.2174 12.5869 47.3713 17.0832 49.2338C21.5796 51.0962 26.5273 51.5835 31.3006 50.6341C36.0739 49.6846 40.4585 47.341 43.8998 43.8996C47.3412 40.4582 49.6848 36.0737 50.6343 31.3004C51.5838 26.527 51.0965 21.5794 49.234 17.083C47.3715 12.5866 44.2176 8.74351 40.171 6.03965C36.1243 3.33578 31.3668 1.89259 26.5 1.89259C19.4509 1.88479 12.6705 4.59693 7.57139 9.46402" stroke="#FB8101" stroke-width="3" stroke-linecap="round" stroke-linejoin="round"/>
<path d="M9.46427 1.89258L7.57141 9.46401L15.1428 11.3569" stroke="#FB8101" stroke-width="3" stroke-linecap="round" stroke-linejoin="round"/>
<path d="M26.5 13.25V28.3929L16.6571 33.3143" stroke="#FB8101" stroke-width="2" stroke-linecap="round" stroke-linejoin="round"/>
</g>
<defs>
<clipPath id="clip0_1278_409">
<rect width="53" height="53" fill="white"/>
</clipPath>
</defs>
</svg>
