<svg width="25" height="25" viewBox="0 0 25 25" fill="none" xmlns="http://www.w3.org/2000/svg">
<g clip-path="url(#clip0_2091_1899)">
<path d="M10.3927 10.8572C9.97795 9.88363 9.78473 8.83005 9.82699 7.77264C9.86925 6.71523 10.1459 5.68042 10.6371 4.74303C11.1282 3.80564 11.8214 2.98908 12.6667 2.3524C13.512 1.71571 14.4883 1.27481 15.5248 1.06156C16.5613 0.848315 17.6323 0.868053 18.6603 1.11935C19.6883 1.37064 20.6476 1.84722 21.4689 2.51461C22.2901 3.18201 22.9528 4.02355 23.4091 4.97841C23.8653 5.93326 24.1037 6.97756 24.107 8.0358C24.1077 8.97409 23.9236 9.90334 23.5651 10.7704C23.2066 11.6376 22.6808 12.4255 22.0177 13.0894" stroke="black" stroke-width="2" stroke-linecap="round" stroke-linejoin="round"/>
<path d="M16.9639 8.03599L19.6424 5.35742" stroke="black" stroke-width="2" stroke-linecap="round" stroke-linejoin="round"/>
<path d="M18.3213 16.3569L16.5356 15.7498C16.3886 15.6901 16.2241 15.6903 16.0772 15.7504C15.9304 15.8104 15.8129 15.9256 15.7499 16.0712L14.4463 18.0891L7.30346 14.5177C6.74794 14.1992 6.13019 14.0045 5.49247 13.9468C4.85474 13.8891 4.21208 13.9699 3.60844 14.1835C3.00481 14.3972 2.45444 14.7387 1.99498 15.1847C1.53552 15.6307 1.17781 16.1706 0.946314 16.7677C0.899395 16.9201 0.882963 17.0803 0.897956 17.239C0.912948 17.3978 0.959072 17.5521 1.03369 17.693C1.10831 17.834 1.20997 17.9589 1.33286 18.0605C1.45574 18.1622 1.59745 18.2386 1.74989 18.2855L6.4106 19.7855L6.87489 19.9284L7.74989 22.9462C7.77799 23.0507 7.832 23.1464 7.90692 23.2244C7.98183 23.3024 8.07523 23.3603 8.17846 23.3927L10.2856 24.0712C10.3948 24.1074 10.5116 24.1145 10.6244 24.0917C10.7372 24.0689 10.842 24.0171 10.9286 23.9413C11.0152 23.8656 11.0805 23.7685 11.1181 23.6597C11.1556 23.551 11.1641 23.4343 11.1427 23.3212L10.7142 21.1962L11.0177 21.2855L15.5713 22.7677C15.8697 22.8705 16.1967 22.8513 16.481 22.7142C16.7653 22.577 16.9839 22.3331 17.0892 22.0355L18.6963 17.0891C18.7371 16.9423 18.7212 16.7855 18.6517 16.6498C18.5822 16.5142 18.4643 16.4096 18.3213 16.3569Z" stroke="black" stroke-width="2" stroke-linecap="round" stroke-linejoin="round"/>
</g>
<defs>
<clipPath id="clip0_2091_1899">
<rect width="25" height="25" fill="white"/>
</clipPath>
</defs>
</svg>
