<svg width="31" height="31" viewBox="0 0 31 31" fill="none" xmlns="http://www.w3.org/2000/svg">
<path d="M15.6551 17.476C15.6293 17.476 15.5905 17.476 15.5647 17.476C15.526 17.476 15.4743 17.476 15.4355 17.476C12.5035 17.3856 10.3076 15.0994 10.3076 12.2835C10.3076 9.41604 12.6455 7.07812 15.513 7.07812C18.3805 7.07812 20.7185 9.41604 20.7185 12.2835C20.7055 15.1123 18.4968 17.3856 15.6939 17.476C15.668 17.476 15.668 17.476 15.6551 17.476ZM15.5001 9.00271C13.6918 9.00271 12.2322 10.4752 12.2322 12.2706C12.2322 14.0402 13.6143 15.474 15.3709 15.5385C15.4097 15.5256 15.5389 15.5256 15.668 15.5385C17.3989 15.4481 18.7551 14.0273 18.768 12.2706C18.768 10.4752 17.3085 9.00271 15.5001 9.00271Z" fill="#797979"/>
<path d="M15.4997 29.3858C12.0252 29.3858 8.70558 28.0942 6.13516 25.7433C5.90266 25.5367 5.79933 25.2267 5.82516 24.9296C5.99308 23.3925 6.94891 21.9587 8.53766 20.8996C12.3868 18.3421 18.6256 18.3421 22.4618 20.8996C24.0506 21.9717 25.0064 23.3925 25.1743 24.9296C25.2131 25.2396 25.0968 25.5367 24.8643 25.7433C22.2939 28.0942 18.9743 29.3858 15.4997 29.3858ZM7.85308 24.6712C9.99725 26.4667 12.6968 27.4483 15.4997 27.4483C18.3027 27.4483 21.0022 26.4667 23.1464 24.6712C22.9139 23.8833 22.2939 23.1212 21.3768 22.5012C18.1993 20.3829 12.8131 20.3829 9.60975 22.5012C8.69266 23.1212 8.08558 23.8833 7.85308 24.6712Z" fill="#797979"/>
<path d="M15.4997 29.3851C7.84009 29.3851 1.61426 23.1593 1.61426 15.4997C1.61426 7.84009 7.84009 1.61426 15.4997 1.61426C23.1593 1.61426 29.3851 7.84009 29.3851 15.4997C29.3851 23.1593 23.1593 29.3851 15.4997 29.3851ZM15.4997 3.55176C8.91217 3.55176 3.55176 8.91217 3.55176 15.4997C3.55176 22.0872 8.91217 27.4476 15.4997 27.4476C22.0872 27.4476 27.4476 22.0872 27.4476 15.4997C27.4476 8.91217 22.0872 3.55176 15.4997 3.55176Z" fill="#797979"/>
</svg>
